<svg xmlns="http://www.w3.org/2000/svg" viewBox="0 0 742.01 225.56"><path d="M108.59,145.25q-6.11,10.22-18.1,16.4t-29.18,6.17q-17,0-30.32-5.72A51.25,51.25,0,0,1,9.61,145.58,47.38,47.38,0,0,1,.45,120.42H34.39a25.67,25.67,0,0,0,7.8,16.07q6.68,6.39,17.76,6.4,9.94,0,15.27-5.28A18.35,18.35,0,0,0,80.54,124a17.76,17.76,0,0,0-4.3-12.25A31.48,31.48,0,0,0,65.38,104q-6.57-2.91-18.1-6.74a179,179,0,0,1-24.43-9.77,45,45,0,0,1-16.18-14Q0,64.26,0,49.43,0,29,14.82,17.19T54.07,5.39q25.33,0,40.38,12.13t17.08,32.36H77.14A23.77,23.77,0,0,0,69.9,35.83Q64,30.34,53.84,30.33q-8.82,0-14.25,4.61T34.16,48.3a16.48,16.48,0,0,0,4.19,11.57A31.72,31.72,0,0,0,49,67.4a175.37,175.37,0,0,0,17.53,6.52A232.63,232.63,0,0,1,91.51,84a43.87,43.87,0,0,1,16.4,14.15q6.78,9.43,6.79,24.71A42.83,42.83,0,0,1,108.59,145.25Z" fill="#fff"/><path d="M159.71,41.79l34.16,84.47,31.68-84.47h35.06L183.92,225.56H148.63l28.28-62.9L124.2,41.79Z" fill="#fff"/><path d="M307.44,0V166.25h-31.9V0Z" fill="#fff"/><path d="M453.13,110.09H361.28q.68,16.62,9.05,24.49t20.81,7.86q11.08,0,18.44-5.39A23.89,23.89,0,0,0,419,122.44h33.71A53.52,53.52,0,0,1,442,145.81,55.44,55.44,0,0,1,421.12,162a67.46,67.46,0,0,1-28.39,5.84q-18.33,0-32.58-7.75A54.62,54.62,0,0,1,338,137.94q-7.92-14.37-7.92-33.92T338,70a53.84,53.84,0,0,1,22.17-22.13q14.25-7.64,32.58-7.63,18.54,0,32.46,7.63a54.12,54.12,0,0,1,21.49,21q7.57,13.36,7.58,30.44A60,60,0,0,1,453.13,110.09ZM414.1,73q-8.7-7.86-21.37-7.87-12.9,0-21.72,7.87t-9.73,23.14h60.86Q422.81,80.88,414.1,73Z" fill="#fff"/><path d="M553.12,47.63a40.43,40.43,0,0,1,16.06,20V41.79h31.67V166.25H569.18V140.19a41,41,0,0,1-16.06,20.11q-11.31,7.53-27.15,7.52a54.1,54.1,0,0,1-28.5-7.63,51.7,51.7,0,0,1-19.8-22.13q-7.12-14.49-7.12-34t7.12-34a51.75,51.75,0,0,1,19.8-22.13A54.1,54.1,0,0,1,526,40.22Q541.81,40.22,553.12,47.63ZM511.94,77.51q-9,9.66-9,26.51t9,26.4q9.06,9.56,24,9.55,14.49,0,23.87-9.78T569.18,104q0-16.62-9.39-26.4t-23.87-9.77Q521,67.85,511.94,77.51Z" fill="#fff"/><path d="M703.1,166.25l-41.4-54.37v54.37H629.81V0H661.7V93.46l41.18-51.67h37.78L688,103.8,742,166.25Z" fill="#fff"/></svg>