<svg xmlns="http://www.w3.org/2000/svg" viewBox="0 0 242.13 365.76"><path d="M35.43,339.55a14.21,14.21,0,0,1-5.9,5.36,20.64,20.64,0,0,1-9.52,2,24.83,24.83,0,0,1-9.9-1.87,16.59,16.59,0,0,1-7-5.39,15.38,15.38,0,0,1-3-8.21H11.22a8.4,8.4,0,0,0,2.55,5.24,8,8,0,0,0,5.79,2.09,6.78,6.78,0,0,0,5-1.72,6,6,0,0,0,1.73-4.43,5.81,5.81,0,0,0-1.4-4,10.35,10.35,0,0,0-3.55-2.53c-1.42-.63-3.39-1.37-5.9-2.2a57.52,57.52,0,0,1-8-3.19,14.7,14.7,0,0,1-5.28-4.58A13.06,13.06,0,0,1,0,308.29a12.69,12.69,0,0,1,4.84-10.52q4.83-3.86,12.8-3.85,8.26,0,13.18,4a14.87,14.87,0,0,1,5.57,10.55H25.17a7.73,7.73,0,0,0-2.36-4.58,7.36,7.36,0,0,0-5.24-1.8,7,7,0,0,0-4.65,1.51,6.1,6.1,0,0,0-.41,8.14A10.38,10.38,0,0,0,16,314.15a56.23,56.23,0,0,0,5.72,2.13,74.63,74.63,0,0,1,8.16,3.3,14.25,14.25,0,0,1,5.35,4.61,13.52,13.52,0,0,1,2.22,8.07A13.93,13.93,0,0,1,35.43,339.55Z" fill="#00bee8"/><path d="M52.12,305.79l11.14,27.57L73.6,305.79H85l-25,60H48.5l9.23-20.52-17.2-39.45Z" fill="#00bee8"/><path d="M100.32,292.16v54.25H89.91V292.16Z" fill="#00bee8"/><path d="M147.87,328.08h-30c.15,3.62,1.13,6.28,3,8a9.53,9.53,0,0,0,6.79,2.57,9.91,9.91,0,0,0,6-1.76,7.81,7.81,0,0,0,3.07-4.77h11a17.43,17.43,0,0,1-3.47,7.63,18.09,18.09,0,0,1-6.83,5.28,23.58,23.58,0,0,1-19.9-.63,17.77,17.77,0,0,1-7.23-7.22,22.64,22.64,0,0,1-2.58-11.07A22.88,22.88,0,0,1,110.29,315a17.53,17.53,0,0,1,7.23-7.22,22.19,22.19,0,0,1,10.63-2.49,21.71,21.71,0,0,1,10.6,2.49,17.66,17.66,0,0,1,7,6.86,20.09,20.09,0,0,1,2.11,13.45ZM135.13,316a10,10,0,0,0-7-2.56,10.26,10.26,0,0,0-7.08,2.56c-1.92,1.72-3,4.23-3.18,7.55h19.86C137.9,320.21,137,317.7,135.13,316Z" fill="#00bee8"/><path d="M180.49,307.7a13.18,13.18,0,0,1,5.24,6.52v-8.43h10.34v40.62H185.73V337.9a13.39,13.39,0,0,1-5.24,6.57,15.66,15.66,0,0,1-8.85,2.45,17.7,17.7,0,0,1-9.31-2.49,16.92,16.92,0,0,1-6.46-7.22,27.76,27.76,0,0,1,0-22.22,16.92,16.92,0,0,1,6.46-7.22,17.7,17.7,0,0,1,9.31-2.49A15.8,15.8,0,0,1,180.49,307.7Zm-13.43,9.75c-2,2.1-2.95,5-2.95,8.65s1,6.54,2.95,8.61a11.23,11.23,0,0,0,15.61-.07,13.54,13.54,0,0,0,0-17.15,11.19,11.19,0,0,0-15.61,0Z" fill="#00bee8"/><path d="M229.44,346.41l-13.51-17.74v17.74H205.52V292.16h10.41v30.5l13.43-16.87h12.33L224.49,326l17.64,20.38Z" fill="#00bee8"/><path d="M207.75,109.1H155.8a9.57,9.57,0,1,0,0,19.14h51.95a15.1,15.1,0,0,1,15.15,15v86.09a15.1,15.1,0,0,1-15.15,15H34.38a15.11,15.11,0,0,1-15.15-15V143.26a15.11,15.11,0,0,1,15.15-15H87.24a9.57,9.57,0,1,0,0-19.14H71V66.81A48,48,0,0,1,85.26,32.54a48.93,48.93,0,0,1,82.41,24.58,9.21,9.21,0,0,0,16.68,3.21,9.08,9.08,0,0,0,1.33-6.86c-6.34-31-34-53.47-65.93-53.47C82.69,0,52.57,30,52.61,66.82V109.1H34.38A34.31,34.31,0,0,0,0,143.26v86.09a34.31,34.31,0,0,0,34.38,34.17H207.75a34.31,34.31,0,0,0,34.38-34.17V143.26A34.31,34.31,0,0,0,207.75,109.1Z" fill="#435470"/><path d="M148.87,74.52l-21.68-21.6a8.71,8.71,0,0,0-4.39-2.34,6.8,6.8,0,0,0-.68-.11l-.19,0a7.44,7.44,0,0,0-1.88,0,6.81,6.81,0,0,0-.78.12,8.65,8.65,0,0,0-4.33,2.34L93.25,74.52A8.66,8.66,0,0,0,105.5,86.76l6.89-6.88V175.7a8.68,8.68,0,0,0,17.35,0V79.88l6.89,6.87a8.67,8.67,0,0,0,14.79-6.12A8.53,8.53,0,0,0,148.87,74.52Z" fill="#00bee8"/></svg>