<svg xmlns="http://www.w3.org/2000/svg" viewBox="0 0 480.58 523.02"><path d="M412.34,216.54H309.24a19,19,0,1,0,0,38h103.1a30,30,0,0,1,30.08,29.83V455.21A30,30,0,0,1,412.34,485H68.24a30,30,0,0,1-30.07-29.83V284.35a30,30,0,0,1,30.07-29.83H173.15a19,19,0,1,0,0-38H140.88V132.6a95.24,95.24,0,0,1,28.34-68,96.74,96.74,0,0,1,68.59-28.3c45.91,0,85.85,32.42,95,77.08a18.27,18.27,0,0,0,21.49,14.16,18.13,18.13,0,0,0,14.24-21.4C356,44.64,301,0,237.68,0,164.12.08,104.35,59.57,104.42,132.62v83.92H68.24C30.61,216.54,0,247,0,284.35V455.21C0,492.6,30.61,523,68.24,523h344.1c37.63,0,68.24-30.42,68.24-67.81V284.35C480.58,247,450,216.54,412.34,216.54Z" fill="#fff"/><path d="M295.47,147.9l-43-42.86a17.24,17.24,0,0,0-8.7-4.65c-.48-.1-1-.17-1.36-.21l-.37-.05a15.63,15.63,0,0,0-3.73,0,13.82,13.82,0,0,0-1.56.25,17.13,17.13,0,0,0-8.59,4.63l-43,42.87a17.18,17.18,0,0,0,24.31,24.27l13.69-13.64V348.72a17.21,17.21,0,0,0,34.42,0V158.55l13.67,13.62A17.21,17.21,0,0,0,300.53,160,16.94,16.94,0,0,0,295.47,147.9Z" fill="#fff"/></svg>